<svg width="19" height="25" viewBox="0 0 19 25" fill="none" xmlns="http://www.w3.org/2000/svg">
<path d="M9.34824 21.0615C9.68894 21.0615 10.7825 20.6064 12.3472 19.157C14.8331 16.8649 17.7354 12.8368 17.7354 9.04465C17.7354 6.80297 16.8464 4.65311 15.264 3.06801C13.6817 1.48291 11.5356 0.592407 9.29776 0.592407C7.05997 0.592407 4.91384 1.48291 3.33148 3.06801C1.74913 4.65311 0.860171 6.80297 0.860171 9.04465C0.860171 15.0025 7.78774 20.9351 9.34824 21.0615ZM9.29776 4.00954C10.0931 4.00954 10.8705 4.24578 11.5318 4.68839C12.193 5.131 12.7084 5.76011 13.0128 6.49614C13.3171 7.23218 13.3968 8.04209 13.2416 8.82346C13.0864 9.60484 12.7035 10.3226 12.1411 10.8859C11.5788 11.4492 10.8623 11.8329 10.0822 11.9883C9.30222 12.1437 8.49371 12.064 7.75895 11.7591C7.02419 11.4542 6.39618 10.9379 5.95434 10.2755C5.51249 9.61309 5.27666 8.8343 5.27666 8.03762C5.27777 6.96965 5.70178 5.94574 6.45564 5.19057C7.2095 4.4354 8.23164 4.01065 9.29776 4.00954ZM18.4672 21.8536C18.4672 22.6415 15.2327 24.171 9.29776 24.171C3.36285 24.171 0.128296 22.6415 0.128296 21.8536C0.128296 21.3269 1.64252 20.3494 5.01587 19.8438C5.07448 19.8345 5.13127 19.816 5.18412 19.789C6.76564 21.2848 8.31352 22.2455 9.24729 22.3171H9.36506C10.6269 22.3171 12.465 20.7623 13.2053 20.0797C13.2978 19.9955 13.3904 19.9028 13.4829 19.8101C13.5146 19.8204 13.5469 19.8289 13.5797 19.8354C16.953 20.3494 18.4672 21.3269 18.4672 21.8536Z" fill="white"/>
</svg>
