<svg width="46" height="52" viewBox="0 0 46 52" fill="none" xmlns="http://www.w3.org/2000/svg">
<path d="M17.639 19.6409C17.7148 19.7097 17.804 19.7606 17.9004 19.7902C17.9969 19.8199 18.0983 19.8275 18.1978 19.8126C19.8176 19.5721 21.4619 19.5721 23.0817 19.8126C23.1143 19.8174 23.1473 19.8198 23.1803 19.8198C23.2722 19.8201 23.3633 19.8014 23.4483 19.7649C23.5334 19.7283 23.6106 19.6747 23.6758 19.607C23.7409 19.5392 23.7925 19.4588 23.8277 19.3702C23.863 19.2817 23.8811 19.1867 23.8811 19.0908V17.9627C23.882 17.7889 23.823 17.6206 23.7149 17.4883C23.6069 17.356 23.4569 17.2685 23.2922 17.2417C22.9207 17.1805 22.5474 17.1319 22.1728 17.0963C22.1772 17.047 22.1801 16.9975 22.1801 16.9472V16.5229C22.1801 16.4297 22.1445 16.3403 22.0813 16.2743C22.0181 16.2084 21.9323 16.1713 21.8428 16.1713C21.7534 16.1713 21.6676 16.2084 21.6044 16.2743C21.5412 16.3403 21.5056 16.4297 21.5056 16.5229V16.9472C21.5073 17.0668 21.4862 17.1857 21.4435 17.2967C21.4007 17.4078 21.3372 17.5089 21.2567 17.5942C21.1761 17.6794 21.0801 17.7471 20.9742 17.7933C20.8684 17.8395 20.7547 17.8633 20.6399 17.8633C20.5251 17.8633 20.4115 17.8395 20.3056 17.7933C20.1997 17.7471 20.1037 17.6794 20.0232 17.5942C19.9426 17.5089 19.8791 17.4078 19.8364 17.2967C19.7937 17.1857 19.7725 17.0668 19.7742 16.9472V16.5229C19.7742 16.4297 19.7387 16.3403 19.6755 16.2743C19.6122 16.2084 19.5265 16.1713 19.437 16.1713C19.3476 16.1713 19.2618 16.2084 19.1986 16.2743C19.1353 16.3403 19.0998 16.4297 19.0998 16.5229V16.9472C19.0998 16.9974 19.1027 17.0467 19.1069 17.0956C18.7304 17.1312 18.3552 17.18 17.9877 17.2417C17.823 17.2685 17.673 17.356 17.5649 17.4883C17.4569 17.6206 17.3979 17.7889 17.3988 17.9627V19.0908C17.3987 19.1951 17.4201 19.2982 17.4615 19.3931C17.503 19.488 17.5635 19.5725 17.639 19.6409ZM18.0732 17.9627C18.0729 17.9564 18.0749 17.9502 18.0788 17.9453C18.0826 17.9403 18.088 17.9371 18.094 17.9361C18.4987 17.8683 18.9126 17.8175 19.3272 17.7828C19.4641 18.0179 19.6568 18.2123 19.8867 18.3473C20.1166 18.4822 20.3759 18.5531 20.6398 18.5532C20.9036 18.5532 21.163 18.4823 21.3929 18.3475C21.6228 18.2126 21.8156 18.0182 21.9525 17.7831C22.3654 17.8182 22.7795 17.869 23.1867 17.9363C23.1925 17.9374 23.1978 17.9407 23.2014 17.9456C23.2051 17.9504 23.207 17.9565 23.2067 17.9627V19.0908C23.2068 19.0944 23.2062 19.098 23.2048 19.1014C23.2034 19.1047 23.2013 19.1076 23.1987 19.1099C23.1956 19.1126 23.1919 19.1146 23.188 19.1158C23.1841 19.1169 23.18 19.1171 23.176 19.1164C22.3482 18.9939 21.5133 18.9313 20.6772 18.9291C19.816 18.9265 18.9557 18.9891 18.1032 19.1163C18.0993 19.1172 18.0953 19.117 18.0915 19.1159C18.0877 19.1148 18.0842 19.1128 18.0813 19.11C18.0786 19.1077 18.0765 19.1048 18.0751 19.1015C18.0737 19.0981 18.0731 19.0945 18.0732 19.0909V17.9627ZM16.9996 13.5614C16.9102 13.5614 16.8244 13.5984 16.7612 13.6643C16.6979 13.7303 16.6624 13.8197 16.6624 13.913V14.7221C16.6624 14.8154 16.6979 14.9048 16.7612 14.9708C16.8244 15.0367 16.9102 15.0737 16.9996 15.0737C17.089 15.0737 17.1748 15.0367 17.2381 14.9708C17.3013 14.9048 17.3368 14.8154 17.3368 14.7221V13.913C17.3368 13.8197 17.3013 13.7303 17.2381 13.6643C17.1748 13.5984 17.089 13.5614 16.9996 13.5614ZM18.0912 13.1197C18.1322 13.1373 18.1761 13.1462 18.2204 13.146C18.2647 13.1459 18.3085 13.1366 18.3493 13.1188C18.3902 13.101 18.4273 13.0749 18.4585 13.0422C18.4897 13.0094 18.5144 12.9705 18.5312 12.9278C18.548 12.8851 18.5566 12.8393 18.5564 12.7932C18.5563 12.747 18.5474 12.7013 18.5303 12.6587C18.5132 12.6161 18.4882 12.5774 18.4568 12.5449C18.4254 12.5124 18.3881 12.4866 18.3471 12.4691C17.4838 12.099 16.5154 12.099 15.6521 12.4691C15.6111 12.4866 15.5738 12.5124 15.5424 12.5449C15.511 12.5775 15.486 12.6162 15.4689 12.6588C15.4519 12.7014 15.443 12.7471 15.4428 12.7933C15.4427 12.8394 15.4513 12.8852 15.4681 12.9279C15.4849 12.9706 15.5096 13.0095 15.5408 13.0423C15.5721 13.075 15.6092 13.1011 15.65 13.1189C15.6909 13.1367 15.7347 13.1459 15.779 13.1461C15.8233 13.1462 15.8672 13.1373 15.9082 13.1197C16.2318 12.9808 16.577 12.9049 16.9269 12.8957C17.3256 12.8864 17.7219 12.9626 18.0912 13.1197ZM44.6345 28.5303C44.5592 28.3955 44.4511 28.2838 44.3211 28.2066C44.1911 28.1293 44.0438 28.0892 43.8942 28.0903H43.8903C43.7382 28.09 43.5886 28.1317 43.457 28.2112C43.3253 28.2908 43.2162 28.4053 43.1408 28.5431L41.7595 31.0376C41.7469 31.0604 41.7301 31.0803 41.7102 31.0963C41.6902 31.1123 41.6673 31.124 41.643 31.1308C41.6187 31.1376 41.5933 31.1393 41.5683 31.1359C41.5433 31.1324 41.5192 31.1239 41.4974 31.1107L39.7564 30.0628C39.7124 30.0362 39.6803 29.9925 39.6671 29.9413C39.6539 29.8901 39.6607 29.8355 39.6861 29.7895L41.0027 27.412C41.0808 27.271 41.1208 27.1106 41.1187 26.9478C41.1166 26.785 41.0723 26.6258 40.9905 26.4871C40.9088 26.3484 40.7926 26.2352 40.6542 26.1597C40.5159 26.0841 40.3606 26.0489 40.2046 26.0578C39.0398 26.1255 37.9377 26.6295 37.1009 27.477C36.2642 28.3246 35.7492 29.4587 35.6507 30.6707L33.8715 30.111V29.9483C33.8721 29.788 33.8234 29.6319 33.7326 29.5026C33.6418 29.3734 33.5137 29.2779 33.367 29.2302L30.7582 28.3711C30.5779 28.3119 30.3825 28.3288 30.214 28.4182C30.0456 28.5076 29.9174 28.6623 29.8572 28.8491L27.0037 27.9521C26.5958 27.8247 26.2238 27.5954 25.9202 27.284C25.9112 27.2707 25.9013 27.258 25.8906 27.2462C25.8839 27.239 25.876 27.2338 25.8688 27.2275C25.4065 26.7244 25.1492 26.0541 25.151 25.3574V25.2458C26.3534 24.3026 27.3297 23.0817 28.0033 21.6788C28.6769 20.2759 29.0294 18.7293 29.0332 17.1604V16.5885C29.6857 16.5022 30.2856 16.1709 30.7207 15.6567C31.1559 15.1425 31.3964 14.4806 31.3973 13.7948C31.3967 13.2082 31.1729 12.6458 30.7751 12.2309C30.3772 11.8161 29.8378 11.5828 29.2752 11.5822H29.0332V5.56365C29.0317 4.12639 28.4834 2.74846 27.5087 1.73217C26.5339 0.715868 25.2124 0.1442 23.8339 0.142578L17.446 0.142578C16.0675 0.1442 14.7459 0.715868 13.7712 1.73217C12.7965 2.74846 12.2482 4.12639 12.2466 5.56365V11.5822H12.0047C11.4421 11.5828 10.9027 11.8161 10.5048 12.2309C10.107 12.6457 9.88317 13.2081 9.88254 13.7947C9.88344 14.4805 10.124 15.1424 10.5591 15.6566C10.9942 16.1709 11.5942 16.5022 12.2466 16.5885V17.1604C12.2504 18.7293 12.603 20.2759 13.2766 21.6788C13.9502 23.0817 14.9265 24.3026 16.1289 25.2458V25.3574C16.1307 26.0541 15.8734 26.7244 15.4111 27.2275C15.4039 27.2338 15.396 27.239 15.3892 27.2462C15.3785 27.258 15.3687 27.2706 15.3597 27.2839C15.0561 27.5953 14.6841 27.8247 14.2761 27.9521L11.4227 28.8491C11.3624 28.6622 11.2342 28.5074 11.0655 28.418C10.8969 28.3287 10.7014 28.3119 10.521 28.3713L7.91356 29.23C7.76673 29.2776 7.63843 29.3731 7.5475 29.5023C7.45657 29.6316 7.40782 29.7879 7.40841 29.9483V30.111L5.29452 30.7758C3.81441 31.2392 2.51682 32.1874 1.59396 33.4799C0.671092 34.7724 0.172038 36.3404 0.170715 37.9517V51.2251C0.170715 51.3184 0.206244 51.4078 0.269485 51.4737C0.332726 51.5397 0.418499 51.5767 0.507935 51.5767C0.597371 51.5767 0.683144 51.5397 0.746385 51.4737C0.809626 51.4078 0.845154 51.3184 0.845154 51.2251V45.2648H7.40841V46.6855L7.40821 46.6869V51.2251C7.40821 51.3184 7.44374 51.4078 7.50698 51.4737C7.57022 51.5397 7.656 51.5767 7.74543 51.5767H7.74563C7.83506 51.5767 7.92084 51.5397 7.98408 51.4737C8.04732 51.4078 8.08285 51.3184 8.08285 51.2251V29.9483C8.08283 29.9377 8.08604 29.9274 8.092 29.9189C8.09795 29.9104 8.10636 29.9041 8.11599 29.9008L10.7236 29.0421C10.7308 29.0397 10.7385 29.0391 10.746 29.0404C10.7536 29.0416 10.7607 29.0448 10.7668 29.0495C10.7729 29.0542 10.7779 29.0603 10.7813 29.0674C10.7847 29.0746 10.7865 29.0824 10.7864 29.0903V33.9233C10.7867 34.203 10.8934 34.4711 11.083 34.6688C11.2727 34.8666 11.5298 34.9778 11.798 34.9781H29.4818C29.75 34.9778 30.0072 34.8666 30.1968 34.6688C30.3865 34.4711 30.4932 34.203 30.4935 33.9233V29.0903C30.4932 29.0824 30.4949 29.0744 30.4983 29.0673C30.5018 29.0601 30.5069 29.054 30.5131 29.0494C30.5191 29.0445 30.5261 29.0413 30.5335 29.04C30.541 29.0387 30.5486 29.0393 30.5557 29.0419L33.1646 29.9009C33.1741 29.9043 33.1823 29.9106 33.1881 29.9191C33.194 29.9276 33.1971 29.9378 33.197 29.9483V40.3219L28.5855 48.6498C28.3429 49.0978 28.2798 49.6275 28.4098 50.1237C28.5399 50.62 28.8525 51.0426 29.2798 51.2998C29.7072 51.557 30.2146 51.6279 30.6917 51.4971C31.1689 51.3663 31.5773 51.0443 31.828 50.6013L33.1971 48.1287V51.2251C33.1971 51.3184 33.2326 51.4078 33.2959 51.4737C33.3591 51.5397 33.4449 51.5767 33.5343 51.5767C33.6238 51.5767 33.7095 51.5397 33.7728 51.4737C33.836 51.4078 33.8716 51.3184 33.8716 51.2251V46.9106L34.7826 45.265H40.4347V51.2251C40.4347 51.3184 40.4702 51.4078 40.5335 51.4737C40.5967 51.5397 40.6825 51.5767 40.7719 51.5767C40.8614 51.5767 40.9471 51.5397 41.0104 51.4737C41.0736 51.4078 41.1091 51.3184 41.1091 51.2251V37.9517C41.1089 37.3273 41.0335 36.7054 40.8848 36.1007C41.6988 36.0301 42.4824 35.745 43.1618 35.2722C43.8413 34.7994 44.3944 34.1543 44.7692 33.3976C45.144 32.6408 45.3283 31.7972 45.3048 30.9458C45.2812 30.0944 45.0506 29.2633 44.6345 28.5303ZM29.0332 12.2854H29.2752C29.659 12.2858 30.0269 12.445 30.2983 12.7279C30.5698 13.0109 30.7224 13.3945 30.7229 13.7947C30.7221 14.2938 30.552 14.7765 30.2428 15.1574C29.9336 15.5384 29.5052 15.793 29.0332 15.8764V12.2854ZM12.2466 15.8764C11.7747 15.793 11.3463 15.5384 11.0371 15.1574C10.7279 14.7765 10.5579 14.2938 10.5571 13.7947C10.5575 13.3945 10.7102 13.0109 10.9816 12.7279C11.253 12.445 11.621 12.2858 12.0048 12.2854H12.2467L12.2466 15.8764ZM7.40841 44.5616H0.845154V37.9517C0.840319 36.4898 1.29036 35.0658 2.12774 33.8933C2.96511 32.7209 4.14463 31.8632 5.48924 31.4491L7.40841 30.8454V44.5616ZM28.3588 14.6615H28.2916C28.1131 14.6613 27.9419 14.5872 27.8156 14.4556C27.6894 14.3239 27.6184 14.1454 27.6182 13.9593V9.73123H28.3588V14.6615ZM12.9211 5.56355C12.9225 4.31275 13.3996 3.11358 14.2479 2.22913C15.0962 1.34469 16.2463 0.847188 17.446 0.845779H23.8339C25.0335 0.847188 26.1837 1.3447 27.032 2.22917C27.8803 3.11364 28.3574 4.31283 28.3588 5.56365V6.91842H12.9211V5.56355ZM12.9211 7.62162H28.3588V9.02802H12.9211V7.62162ZM12.9211 9.73123H13.6617V13.9591C13.6615 14.1452 13.5905 14.3237 13.4642 14.4554C13.338 14.587 13.1668 14.6611 12.9882 14.6613H12.9211V9.73123ZM12.9211 17.1603V15.3645H12.9882C13.3456 15.364 13.6882 15.2158 13.9409 14.9524C14.1936 14.6889 14.3357 14.3317 14.3361 13.9591V9.73133H26.9437V13.9592C26.9441 14.3318 27.0863 14.689 27.339 14.9525C27.5917 15.2159 27.9343 15.3641 28.2916 15.3646H28.3588V17.1604C28.3549 18.8086 27.9373 20.4269 27.1477 21.8547C26.3582 23.2825 25.224 24.47 23.8579 25.2992C22.8803 25.8907 21.7702 26.2023 20.6399 26.2023C19.5097 26.2023 18.3995 25.8907 17.422 25.2992C16.0559 24.47 14.9217 23.2825 14.1321 21.8547C13.3425 20.4269 12.925 18.8086 12.9211 17.1604V17.1603ZM16.7848 25.7183C16.8831 25.7829 16.9826 25.8458 17.0832 25.9072C18.1637 26.561 19.3907 26.9055 20.6399 26.9055C21.8892 26.9055 23.1162 26.561 24.1966 25.9072C24.2975 25.8461 24.3969 25.7831 24.495 25.7183C24.5581 26.3603 24.7957 26.9703 25.1799 27.4763C23.9348 28.648 22.3172 29.2967 20.6399 29.2967C18.9627 29.2967 17.3451 28.648 16.1 27.4763C16.4842 26.9703 16.7218 26.3603 16.7848 25.7183ZM29.819 33.9233C29.8189 34.0166 29.7834 34.1059 29.7202 34.1718C29.6569 34.2378 29.5712 34.2748 29.4818 34.2749H11.798C11.7086 34.2748 11.6229 34.2378 11.5597 34.1718C11.4965 34.1059 11.4609 34.0166 11.4608 33.9233V29.5715L14.4707 28.6252C14.8944 28.4929 15.2882 28.2733 15.6289 27.9793C16.9999 29.2795 18.7866 30 20.6399 30C22.4932 30 24.28 29.2795 25.651 27.9793C25.9917 28.2733 26.3855 28.4929 26.8091 28.6252L29.819 29.5715V33.9233ZM33.8715 30.8454L35.6448 31.4034C35.6676 31.771 35.7284 32.135 35.8264 32.489C35.991 33.0858 36.26 33.6458 36.62 34.1405L33.8715 39.1039V30.8454ZM31.244 50.2495C31.1654 50.3915 31.0607 50.5159 30.936 50.6158C30.8112 50.7156 30.6688 50.7888 30.5169 50.8313C30.365 50.8737 30.2066 50.8846 30.0507 50.8632C29.8947 50.8418 29.7444 50.7886 29.6082 50.7066C29.472 50.6246 29.3526 50.5155 29.2569 50.3854C29.1611 50.2553 29.0909 50.1068 29.0502 49.9485C29.0095 49.7901 28.9991 49.6249 29.0196 49.4623C29.0401 49.2998 29.0911 49.143 29.1698 49.001L37.0911 34.6959C37.4267 35.0363 37.8074 35.3245 38.2218 35.5518C38.5225 35.7162 38.8393 35.8463 39.1668 35.94L31.244 50.2495ZM40.4347 44.5618H35.172L39.8648 36.086C39.9732 36.0995 40.0821 36.1092 40.1911 36.1151C40.3529 36.7127 40.4348 37.3307 40.4347 37.9517V44.5618ZM43.9619 33.448C43.6089 34.0153 43.1336 34.4888 42.574 34.8307C42.0143 35.1726 41.3858 35.3734 40.7385 35.4171C40.0913 35.4608 39.4432 35.3462 38.8459 35.0824C38.2486 34.8187 37.7187 34.4131 37.2985 33.8979C37.2951 33.8931 37.291 33.8889 37.2873 33.8843C36.9121 33.4196 36.6351 32.8777 36.4743 32.2939C36.3696 31.9163 36.3143 31.5258 36.3098 31.1327C36.3097 31.1264 36.3102 31.1201 36.3097 31.1139C36.3045 30.0007 36.7097 28.9281 37.4416 28.1177C38.1735 27.3073 39.1761 26.8212 40.2421 26.7598L40.2542 26.7595C40.2878 26.76 40.3207 26.7696 40.3496 26.7873C40.3785 26.8051 40.4025 26.8305 40.4191 26.8609C40.4357 26.8913 40.4444 26.9257 40.4443 26.9607C40.4442 26.9957 40.4354 27.0301 40.4186 27.0604L39.102 29.4379C38.9874 29.6455 38.9565 29.8919 39.0159 30.1232C39.0754 30.3545 39.2204 30.5518 39.4192 30.6717L41.1602 31.7198C41.2587 31.7791 41.3675 31.8176 41.4803 31.8331C41.5931 31.8486 41.7077 31.8408 41.8176 31.8101C41.9275 31.7794 42.0305 31.7264 42.1207 31.6542C42.211 31.582 42.2867 31.4919 42.3436 31.3892L43.7249 28.8947C43.7418 28.8637 43.7663 28.838 43.7959 28.8202C43.8255 28.8024 43.8591 28.7932 43.8932 28.7935H43.8942C43.9263 28.7927 43.9581 28.801 43.9861 28.8174C44.0141 28.8338 44.0373 28.8579 44.0534 28.8869C44.4476 29.5804 44.6479 30.3751 44.6317 31.1811C44.6156 31.9871 44.3836 32.7723 43.9619 33.448ZM23.1887 13.1197C23.5123 12.9808 23.8576 12.9049 24.2074 12.8957C24.6062 12.8864 25.0025 12.9627 25.3718 13.1197C25.4545 13.1551 25.5474 13.1548 25.6299 13.1188C25.7124 13.0828 25.7778 13.0141 25.8118 12.9278C25.8457 12.8415 25.8454 12.7447 25.8109 12.6587C25.7763 12.5727 25.7105 12.5045 25.6277 12.4691C24.7644 12.099 23.7959 12.099 22.9326 12.4691C22.8917 12.4866 22.8544 12.5124 22.823 12.5449C22.7916 12.5775 22.7666 12.6162 22.7495 12.6588C22.715 12.7448 22.7147 12.8416 22.7487 12.9279C22.7826 13.0142 22.8481 13.0829 22.9306 13.1189C23.0131 13.1548 23.106 13.1552 23.1887 13.1197ZM24.2803 13.5614C24.1908 13.5614 24.1051 13.5984 24.0418 13.6643C23.9786 13.7303 23.943 13.8197 23.943 13.913V14.7221C23.943 14.8154 23.9786 14.9048 24.0418 14.9708C24.1051 15.0367 24.1908 15.0737 24.2803 15.0737C24.3697 15.0737 24.4555 15.0367 24.5187 14.9708C24.582 14.9048 24.6175 14.8154 24.6175 14.7221V13.913C24.6175 13.8197 24.582 13.7303 24.5187 13.6643C24.4555 13.5984 24.3697 13.5614 24.2803 13.5614ZM21.7316 20.8763C21.3623 21.0335 20.966 21.1098 20.5672 21.1003C20.2173 21.0911 19.872 21.0152 19.5484 20.8763C19.4658 20.8415 19.3733 20.8423 19.2913 20.8784C19.2092 20.9145 19.1441 20.9829 19.1103 21.0689C19.0765 21.1548 19.0767 21.2512 19.1108 21.337C19.1449 21.4228 19.2102 21.491 19.2924 21.5268C19.6919 21.6983 20.1182 21.7919 20.5501 21.8032C20.5791 21.804 20.6081 21.8044 20.6371 21.8044C21.1002 21.8036 21.5587 21.7094 21.9874 21.5268C22.029 21.5098 22.067 21.4843 22.0991 21.4519C22.1313 21.4194 22.1569 21.3806 22.1745 21.3377C22.1921 21.2948 22.2013 21.2487 22.2016 21.2021C22.202 21.1554 22.1934 21.1092 22.1764 21.066C22.1595 21.0229 22.1344 20.9837 22.1028 20.9507C22.0711 20.9177 22.0335 20.8917 21.9921 20.874C21.9507 20.8563 21.9064 20.8474 21.8616 20.8478C21.8169 20.8482 21.7727 20.8579 21.7316 20.8763Z" fill="white"/>
</svg>
