<svg width="23" height="23" viewBox="0 0 23 23" fill="none" xmlns="http://www.w3.org/2000/svg">
<path d="M11.6214 0.465576C5.59716 0.465576 0.705322 5.35741 0.705322 11.3816C0.705322 17.4058 5.59716 22.2976 11.6214 22.2976C17.6455 22.2976 22.5374 17.4058 22.5374 11.3816C22.5374 5.35741 17.6455 0.465576 11.6214 0.465576ZM11.6214 1.19331C17.2526 1.19331 21.8096 5.75039 21.8096 11.3816C21.8096 17.0128 17.2526 21.5699 11.6214 21.5699C5.99014 21.5699 1.43306 17.0128 1.43306 11.3816C1.43306 5.75039 5.99014 1.19331 11.6214 1.19331ZM11.6214 2.64878C6.80302 2.64878 2.88853 6.56327 2.88853 11.3816C2.88853 16.2007 6.80302 20.1144 11.6214 20.1144C16.4397 20.1144 20.3542 16.2007 20.3542 11.3816C20.3542 6.56327 16.4397 2.64878 11.6214 2.64878ZM11.6214 3.37652C15.5489 3.37652 18.8041 6.19795 19.4882 9.92614H17.2715C16.3364 8.53252 14.1044 7.74293 11.6126 7.74293C11.6121 7.74293 11.6117 7.74293 11.6112 7.74293C9.12813 7.74293 6.90999 8.53762 5.97995 9.92614H3.75381C4.43861 6.19795 7.69377 3.37652 11.6214 3.37652ZM11.6126 8.47067C13.9952 8.47067 16.0554 9.34613 16.7126 10.4021L16.7111 12.9128C15.7953 12.9962 14.9377 13.3979 14.2873 14.048C13.6369 14.6982 13.2349 15.5556 13.1511 16.4714H10.0917C10.0082 15.5557 9.60641 14.6983 8.95626 14.0482C8.30611 13.398 7.44868 12.9963 6.53303 12.9128L6.53012 10.4152C7.17635 9.3585 9.23001 8.47358 11.6126 8.47067ZM3.65338 10.6539H5.80238L5.80384 12.1093H3.65265C3.63082 11.8692 3.61626 11.6276 3.61626 11.3816C3.61626 11.1364 3.63227 10.894 3.65338 10.6539ZM11.6214 10.6539C10.8216 10.6539 10.1659 11.3096 10.1659 12.1093C10.1659 12.9091 10.8216 13.5648 11.6214 13.5648C12.4211 13.5648 13.0768 12.9091 13.0768 12.1093C13.0768 11.3096 12.4211 10.6539 11.6214 10.6539ZM17.4403 10.6539H19.5893C19.6112 10.894 19.6264 11.1364 19.6264 11.3816C19.6264 11.6276 19.6112 11.8692 19.5901 12.1093H17.4389L17.4403 10.6539ZM11.6214 11.3816C12.0274 11.3816 12.3491 11.7033 12.3491 12.1093C12.3491 12.5154 12.0274 12.8371 11.6214 12.8371C11.2153 12.8371 10.8936 12.5154 10.8936 12.1093C10.8936 11.7033 11.2153 11.3816 11.6214 11.3816ZM3.75453 12.8371H5.80529V13.2024C5.80529 13.2989 5.84363 13.3915 5.91187 13.4597C5.9801 13.5279 6.07266 13.5663 6.16916 13.5663C6.59866 13.5655 7.0241 13.6495 7.42105 13.8135C7.81801 13.9776 8.17869 14.2183 8.48239 14.522C8.7861 14.8257 9.02686 15.1864 9.19087 15.5834C9.35488 15.9803 9.43891 16.4058 9.43815 16.8353C9.43815 16.9318 9.47648 17.0243 9.54472 17.0926C9.61296 17.1608 9.70551 17.1991 9.80201 17.1991H10.1659V19.2477C8.57386 18.9538 7.10855 18.1836 5.96374 17.039C4.81893 15.8943 4.04857 14.4291 3.75453 12.8371ZM17.4389 12.8371H19.4889C19.1948 14.4292 18.4244 15.8945 17.2794 17.0392C16.1345 18.1838 14.669 18.954 13.0768 19.2477V17.1991H13.4407C13.5372 17.1991 13.6297 17.1608 13.698 17.0926C13.7662 17.0243 13.8046 16.9318 13.8046 16.8353C13.804 16.4057 13.8882 15.9802 14.0524 15.5833C14.2165 15.1863 14.4574 14.8256 14.7613 14.5219C15.0651 14.2182 15.4258 13.9775 15.8229 13.8135C16.2199 13.6495 16.6454 13.5655 17.075 13.5663C17.1715 13.5663 17.2641 13.5279 17.3323 13.4597C17.4005 13.3915 17.4389 13.2989 17.4389 13.2024V12.8371ZM10.8936 17.1991H12.3491V19.3481C12.1089 19.37 11.8673 19.3867 11.6214 19.3867C11.3754 19.3867 11.1338 19.37 10.8936 19.3481V17.1991Z" fill="white"/>
</svg>
